<?xml version="1.0" encoding="utf-8"?>
<!-- Generator: Adobe Illustrator 27.0.1, SVG Export Plug-In . SVG Version: 6.00 Build 0)  -->
<svg version="1.1" id="Слой_1" xmlns="http://www.w3.org/2000/svg" xmlns:xlink="http://www.w3.org/1999/xlink" x="0px" y="0px"
	 viewBox="0 0 34 50" style="enable-background:new 0 0 34 50;" xml:space="preserve">
<style type="text/css">
	.st0{fill:#E04F5F;}
</style>
<path class="st0" d="M12.6,0.9c-7.7,2.2-12,7.9-12,16.3c0,5.6,1.8,9.4,6.3,13.2c2.5,2.1,4.3,5.1,6.8,11.7c1.8,4.9,3.5,8.3,3.7,7.5
	c2.5-9,5.9-15.8,9.7-19.4c7-6.6,8.2-15.1,3.2-22.6C26.4,1.8,19.3-0.9,12.6,0.9z M20.6,12.7c1.1,1.1,2,3,2,4.2
	c0,5.3-7.4,7.9-10.4,3.6c-2.1-3-2-4.7,0.6-7.5S18,10.1,20.6,12.7z"/>
</svg>
